<svg id="visual" viewBox="0 0 960 540" width="960" height="540" xmlns="http://www.w3.org/2000/svg" xmlns:xlink="http://www.w3.org/1999/xlink" version="1.1"><rect x="0" y="0" width="960" height="540" fill="#3c1053"></rect><defs><linearGradient id="grad1_0" x1="43.8%" y1="0%" x2="100%" y2="100%"><stop offset="14.444444444444446%" stop-color="#3c1053" stop-opacity="1"></stop><stop offset="85.55555555555554%" stop-color="#3c1053" stop-opacity="1"></stop></linearGradient></defs><defs><linearGradient id="grad2_0" x1="0%" y1="0%" x2="56.3%" y2="100%"><stop offset="14.444444444444446%" stop-color="#3c1053" stop-opacity="1"></stop><stop offset="85.55555555555554%" stop-color="#3c1053" stop-opacity="1"></stop></linearGradient></defs><g transform="translate(960, 0)"><path d="M0 486C-46.5 438 -93.1 389.9 -154.6 373.2C-216.1 356.5 -292.6 371.2 -343.7 343.7C-394.7 316.1 -420.3 246.5 -439.8 182.2C-459.2 117.9 -472.6 58.9 -486 0L0 0Z" fill="#5a287d"></path></g><g transform="translate(0, 540)"><path d="M0 -486C67.3 -479.7 134.6 -473.4 182.5 -440.7C230.5 -408 259.1 -348.9 305.5 -305.5C351.8 -262 416 -234.3 449 -186C482.1 -137.7 484 -68.8 486 0L0 0Z" fill="#5a287d"></path></g></svg>