<svg id="visual" viewBox="0 0 900 600" width="900" height="600" xmlns="http://www.w3.org/2000/svg" xmlns:xlink="http://www.w3.org/1999/xlink" version="1.1"><rect x="0" y="0" width="900" height="600" fill="#43b02a"></rect><path d="M265 600L213 450L238 300L231 150L199 0L900 0L900 150L900 300L900 450L900 600Z" fill="#008000"></path><path d="M460 600L481 450L436 300L494 150L495 0L900 0L900 150L900 300L900 450L900 600Z" fill="#005f28"></path><path d="M685 600L702 450L674 300L680 150L691 0L900 0L900 150L900 300L900 450L900 600Z" fill="#043d2b"></path></svg>