<svg id="visual" viewBox="0 0 960 540" width="960" height="540" xmlns="http://www.w3.org/2000/svg" xmlns:xlink="http://www.w3.org/1999/xlink" version="1.1"><rect x="0" y="0" width="960" height="540" fill="#b698d1"></rect><path d="M145 540L183.3 495C221.7 450 298.3 360 328.5 270C358.7 180 342.3 90 334.2 45L326 0L960 0L960 45C960 90 960 180 960 270C960 360 960 450 960 495L960 540Z" fill="#7a3abf"></path><path d="M368 540L372.5 495C377 450 386 360 400 270C414 180 433 90 442.5 45L452 0L960 0L960 45C960 90 960 180 960 270C960 360 960 450 960 495L960 540Z" fill="#9a6ac9"></path><path d="M845 540L828.8 495C812.7 450 780.3 360 732.8 270C685.3 180 622.7 90 591.3 45L560 0L960 0L960 45C960 90 960 180 960 270C960 360 960 450 960 495L960 540Z" fill="#b698d1"></path></svg>