<svg id="visual" viewBox="0 0 960 540" width="960" height="540" xmlns="http://www.w3.org/2000/svg" xmlns:xlink="http://www.w3.org/1999/xlink" version="1.1"><path d="M0 152L26.7 163.7C53.3 175.3 106.7 198.7 160 222.2C213.3 245.7 266.7 269.3 320 284.7C373.3 300 426.7 307 480 277.2C533.3 247.3 586.7 180.7 640 176.2C693.3 171.7 746.7 229.3 800 252.8C853.3 276.3 906.7 265.7 933.3 260.3L960 255L960 0L933.3 0C906.7 0 853.3 0 800 0C746.7 0 693.3 0 640 0C586.7 0 533.3 0 480 0C426.7 0 373.3 0 320 0C266.7 0 213.3 0 160 0C106.7 0 53.3 0 26.7 0L0 0Z" fill="#00946a"></path><path d="M0 233L26.7 249.2C53.3 265.3 106.7 297.7 160 326.5C213.3 355.3 266.7 380.7 320 395.2C373.3 409.7 426.7 413.3 480 384.5C533.3 355.7 586.7 294.3 640 290.7C693.3 287 746.7 341 800 374.3C853.3 407.7 906.7 420.3 933.3 426.7L960 433L960 253L933.3 258.3C906.7 263.7 853.3 274.3 800 250.8C746.7 227.3 693.3 169.7 640 174.2C586.7 178.7 533.3 245.3 480 275.2C426.7 305 373.3 298 320 282.7C266.7 267.3 213.3 243.7 160 220.2C106.7 196.7 53.3 173.3 26.7 161.7L0 150Z" fill="#07653d"></path><path d="M0 541L26.7 541C53.3 541 106.7 541 160 541C213.3 541 266.7 541 320 541C373.3 541 426.7 541 480 541C533.3 541 586.7 541 640 541C693.3 541 746.7 541 800 541C853.3 541 906.7 541 933.3 541L960 541L960 431L933.3 424.7C906.7 418.3 853.3 405.7 800 372.3C746.7 339 693.3 285 640 288.7C586.7 292.3 533.3 353.7 480 382.5C426.7 411.3 373.3 407.7 320 393.2C266.7 378.7 213.3 353.3 160 324.5C106.7 295.7 53.3 263.3 26.7 247.2L0 231Z" fill="#003918"></path></svg>