<svg id="visual" viewBox="0 0 960 540" width="960" height="540" xmlns="http://www.w3.org/2000/svg" xmlns:xlink="http://www.w3.org/1999/xlink" version="1.1"><rect x="0" y="0" width="960" height="540" fill="#ffffff"></rect><defs><linearGradient id="grad1_0" x1="43.8%" y1="0%" x2="100%" y2="100%"><stop offset="14.444444444444446%" stop-color="#ffffff" stop-opacity="1"></stop><stop offset="85.55555555555554%" stop-color="#ffffff" stop-opacity="1"></stop></linearGradient></defs><defs><linearGradient id="grad2_0" x1="0%" y1="0%" x2="56.3%" y2="100%"><stop offset="14.444444444444446%" stop-color="#ffffff" stop-opacity="1"></stop><stop offset="85.55555555555554%" stop-color="#ffffff" stop-opacity="1"></stop></linearGradient></defs><g transform="translate(960, 0)"><path d="M0 486C-56.8 456.1 -113.5 426.2 -165.3 399.1C-217.1 372 -264 347.7 -314.7 314.7C-365.3 281.6 -419.8 239.9 -449 186C-478.2 132.1 -482.1 66 -486 0L0 0Z" fill="#043d2b"></path></g><g transform="translate(0, 540)"><path d="M0 -486C70.8 -486.9 141.6 -487.8 186 -449C230.4 -410.2 248.4 -331.7 280.7 -280.7C313.1 -229.8 359.7 -206.4 396.3 -164.2C432.9 -122 459.5 -61 486 0L0 0Z" fill="#043d2b"></path></g></svg>