<svg id="visual" viewBox="0 0 960 540" width="960" height="540" xmlns="http://www.w3.org/2000/svg" xmlns:xlink="http://www.w3.org/1999/xlink" version="1.1"><path d="M0 228L14.5 225.3C29 222.7 58 217.3 87.2 205.7C116.3 194 145.7 176 174.8 176.8C204 177.7 233 197.3 262 195.5C291 193.7 320 170.3 349 172.2C378 174 407 201 436.2 201C465.3 201 494.7 174 523.8 177.5C553 181 582 215 611 214C640 213 669 177 698 161.8C727 146.7 756 152.3 785.2 158.7C814.3 165 843.7 172 872.8 176.5C902 181 931 183 945.5 184L960 185L960 0L945.5 0C931 0 902 0 872.8 0C843.7 0 814.3 0 785.2 0C756 0 727 0 698 0C669 0 640 0 611 0C582 0 553 0 523.8 0C494.7 0 465.3 0 436.2 0C407 0 378 0 349 0C320 0 291 0 262 0C233 0 204 0 174.8 0C145.7 0 116.3 0 87.2 0C58 0 29 0 14.5 0L0 0Z" fill="#43b02a"></path><path d="M0 379L14.5 380.8C29 382.7 58 386.3 87.2 379.2C116.3 372 145.7 354 174.8 345C204 336 233 336 262 343.2C291 350.3 320 364.7 349 361C378 357.3 407 335.7 436.2 322.2C465.3 308.7 494.7 303.3 523.8 314.2C553 325 582 352 611 360.2C640 368.3 669 357.7 698 345C727 332.3 756 317.7 785.2 310.3C814.3 303 843.7 303 872.8 318.3C902 333.7 931 364.3 945.5 379.7L960 395L960 183L945.5 182C931 181 902 179 872.8 174.5C843.7 170 814.3 163 785.2 156.7C756 150.3 727 144.7 698 159.8C669 175 640 211 611 212C582 213 553 179 523.8 175.5C494.7 172 465.3 199 436.2 199C407 199 378 172 349 170.2C320 168.3 291 191.7 262 193.5C233 195.3 204 175.7 174.8 174.8C145.7 174 116.3 192 87.2 203.7C58 215.3 29 220.7 14.5 223.3L0 226Z" fill="#32a01e"></path><path d="M0 476L14.5 472.5C29 469 58 462 87.2 465.7C116.3 469.3 145.7 483.7 174.8 486.3C204 489 233 480 262 475.5C291 471 320 471 349 465.5C378 460 407 449 436.2 446.3C465.3 443.7 494.7 449.3 523.8 448.5C553 447.7 582 440.3 611 438.5C640 436.7 669 440.3 698 447.5C727 454.7 756 465.3 785.2 470.7C814.3 476 843.7 476 872.8 477C902 478 931 480 945.5 481L960 482L960 393L945.5 377.7C931 362.3 902 331.7 872.8 316.3C843.7 301 814.3 301 785.2 308.3C756 315.7 727 330.3 698 343C669 355.7 640 366.3 611 358.2C582 350 553 323 523.8 312.2C494.7 301.3 465.3 306.7 436.2 320.2C407 333.7 378 355.3 349 359C320 362.7 291 348.3 262 341.2C233 334 204 334 174.8 343C145.7 352 116.3 370 87.2 377.2C58 384.3 29 380.7 14.5 378.8L0 377Z" fill="#1f9010"></path><path d="M0 541L14.5 541C29 541 58 541 87.2 541C116.3 541 145.7 541 174.8 541C204 541 233 541 262 541C291 541 320 541 349 541C378 541 407 541 436.2 541C465.3 541 494.7 541 523.8 541C553 541 582 541 611 541C640 541 669 541 698 541C727 541 756 541 785.2 541C814.3 541 843.7 541 872.8 541C902 541 931 541 945.5 541L960 541L960 480L945.5 479C931 478 902 476 872.8 475C843.7 474 814.3 474 785.2 468.7C756 463.3 727 452.7 698 445.5C669 438.3 640 434.7 611 436.5C582 438.3 553 445.7 523.8 446.5C494.7 447.3 465.3 441.7 436.2 444.3C407 447 378 458 349 463.5C320 469 291 469 262 473.5C233 478 204 487 174.8 484.3C145.7 481.7 116.3 467.3 87.2 463.7C58 460 29 467 14.5 470.5L0 474Z" fill="#008000"></path></svg>