<svg id="Layer_1" data-name="Layer 1" xmlns="http://www.w3.org/2000/svg" viewBox="0 0 86.35 31"><defs><style>.cls-1{fill:#59ae33;}</style></defs><path class="cls-1" d="M0,16.23V0H4.14V16.23Z"/><path class="cls-1" d="M7.22,16.23v-12h3.83V5.9a4.12,4.12,0,0,1,1.51-1.46A4.46,4.46,0,0,1,14.69,4a3.92,3.92,0,0,1,3,1,5.08,5.08,0,0,1,.94,3.43v7.79H14.76v-6a6.23,6.23,0,0,0-.36-2.7,1.4,1.4,0,0,0-1.3-.58,1.71,1.71,0,0,0-1.51.69,4,4,0,0,0-.47,2.2v6.41Z"/><path class="cls-1" d="M20.1,6.62V4.25h1.61V.86h3.93V4.25h2V6.62h-2v5.2a2.79,2.79,0,0,0,.3,1.57,1.43,1.43,0,0,0,1.16.39h.5v2.5c-.41.08-.82.14-1.21.18a8.94,8.94,0,0,1-1.14.07,3.29,3.29,0,0,1-2.79-1c-.5-.66-.75-2.08-.75-4.25V6.62Z"/><path class="cls-1" d="M36.94,12.47h3.77a5.23,5.23,0,0,1-2.07,3,6.59,6.59,0,0,1-3.85,1.08,5.84,5.84,0,0,1-4.4-1.69,6.41,6.41,0,0,1-1.62-4.62A6.6,6.6,0,0,1,30.4,5.58a5.75,5.75,0,0,1,4.39-1.73,5.79,5.79,0,0,1,4.49,1.76,6.89,6.89,0,0,1,1.63,4.87v.44c0,.1,0,.18,0,.26h-8.1a3,3,0,0,0,.54,1.93,2,2,0,0,0,1.61.67,2.33,2.33,0,0,0,1.29-.33A1.76,1.76,0,0,0,36.94,12.47ZM32.68,9h4.46a2.69,2.69,0,0,0-.61-1.81,2.07,2.07,0,0,0-1.61-.65,2,2,0,0,0-1.55.64A3,3,0,0,0,32.68,9Z"/><path class="cls-1" d="M42.93,16.23v-12H46.7v2.1a4.37,4.37,0,0,1,1.56-1.8A4.63,4.63,0,0,1,50.64,4V7.84a4.23,4.23,0,0,0-.5,0l-.47,0A3.58,3.58,0,0,0,48.18,8a2.16,2.16,0,0,0-.94.83A3,3,0,0,0,46.92,10a19.8,19.8,0,0,0-.09,2.26v4Z"/><path class="cls-1" d="M52.45,16.23v-12h3.84V5.9A4,4,0,0,1,57.8,4.44,4.4,4.4,0,0,1,59.92,4a3.91,3.91,0,0,1,3,1,5.08,5.08,0,0,1,.94,3.43v7.79H60v-6a6.45,6.45,0,0,0-.35-2.7,1.42,1.42,0,0,0-1.3-.58,1.7,1.7,0,0,0-1.51.69,3.92,3.92,0,0,0-.48,2.2v6.41Z"/><path class="cls-1" d="M74.05,12.47h3.77a5.2,5.2,0,0,1-2.08,3A6.54,6.54,0,0,1,71.9,16.6a5.82,5.82,0,0,1-4.4-1.69,6.41,6.41,0,0,1-1.62-4.62,6.6,6.6,0,0,1,1.63-4.71,6.52,6.52,0,0,1,8.88,0A6.89,6.89,0,0,1,78,10.48v.44c0,.1,0,.18,0,.26H69.9a3,3,0,0,0,.54,1.93,2,2,0,0,0,1.61.67,2.33,2.33,0,0,0,1.29-.33A1.81,1.81,0,0,0,74.05,12.47ZM69.79,9h4.46a2.69,2.69,0,0,0-.61-1.81A2.07,2.07,0,0,0,72,6.5a2,2,0,0,0-1.55.64A3,3,0,0,0,69.79,9Z"/><path class="cls-1" d="M78.81,6.62V4.25h1.61V.86h3.93V4.25h2V6.62h-2v5.2a2.69,2.69,0,0,0,.31,1.57,1.4,1.4,0,0,0,1.15.39h.5v2.5c-.41.08-.82.14-1.21.18a8.94,8.94,0,0,1-1.14.07,3.29,3.29,0,0,1-2.79-1c-.5-.66-.75-2.08-.75-4.25V6.62Z"/><path class="cls-1" d="M39.93,26.78A3.32,3.32,0,0,1,39.18,28a3,3,0,0,1-1.07.73,3.21,3.21,0,0,1-1.25.25,2.73,2.73,0,0,1-1.48-.38,3.74,3.74,0,0,1-1-.89v1.12H32.76v-10h1.67v4a3.48,3.48,0,0,1,1-1,2.56,2.56,0,0,1,1.46-.39,3.26,3.26,0,0,1,1.23.25,3.09,3.09,0,0,1,1.07.73,3.58,3.58,0,0,1,.76,1.18,4.19,4.19,0,0,1,.28,1.6A4.14,4.14,0,0,1,39.93,26.78Zm-1.54-2.56a2.36,2.36,0,0,0-.45-.73,1.88,1.88,0,0,0-.65-.46,2,2,0,0,0-.8-.16A1.94,1.94,0,0,0,35,23.5a2.21,2.21,0,0,0-.46.73,2.77,2.77,0,0,0,0,1.91,2.11,2.11,0,0,0,.46.73,1.9,1.9,0,0,0,.66.47,2.06,2.06,0,0,0,.81.17,2,2,0,0,0,.8-.17,1.88,1.88,0,0,0,.65-.46,2.15,2.15,0,0,0,.45-.73,3,3,0,0,0,0-1.93Z"/><path class="cls-1" d="M46.31,28.79V27.9a3.06,3.06,0,0,1-.94.74,2.94,2.94,0,0,1-1.39.3,3.46,3.46,0,0,1-1-.14,2.42,2.42,0,0,1-.81-.43,2,2,0,0,1-.56-.69,2.13,2.13,0,0,1-.22-1v0a2.4,2.4,0,0,1,.22-1,2,2,0,0,1,.61-.72,2.85,2.85,0,0,1,.93-.43,4.79,4.79,0,0,1,1.16-.14,7.07,7.07,0,0,1,1.12.08,6.29,6.29,0,0,1,.88.22v-.18a1.47,1.47,0,0,0-.46-1.15A2,2,0,0,0,44.55,23a4.49,4.49,0,0,0-1.09.12,6.54,6.54,0,0,0-1,.33L42,22.08a7,7,0,0,1,1.23-.44,6.06,6.06,0,0,1,1.52-.16,3.19,3.19,0,0,1,2.38.79A3.09,3.09,0,0,1,48,24.52v4.27Zm0-3.06a3.92,3.92,0,0,0-.74-.2,4.47,4.47,0,0,0-.91-.08,2.1,2.1,0,0,0-1.21.3,1,1,0,0,0-.44.86v0a.9.9,0,0,0,.4.79,1.67,1.67,0,0,0,1,.28,2.58,2.58,0,0,0,.76-.11,2,2,0,0,0,.61-.31,1.32,1.32,0,0,0,.4-.48,1.26,1.26,0,0,0,.14-.62Z"/><path class="cls-1" d="M51.58,28.79H49.92V21.58h1.66v1.13a4.54,4.54,0,0,1,.39-.48,2.18,2.18,0,0,1,.49-.41,2.43,2.43,0,0,1,.61-.28,2.49,2.49,0,0,1,.76-.11,2.42,2.42,0,0,1,1.89.76,2.93,2.93,0,0,1,.66,2v4.59H54.72V24.71a1.92,1.92,0,0,0-.4-1.31A1.43,1.43,0,0,0,53.19,23a1.52,1.52,0,0,0-1.16.47,1.81,1.81,0,0,0-.45,1.31Z"/><path class="cls-1" d="M65.13,28.79H63.22l-2.17-3.11-1,1.05v2.06H58.38v-10H60v6l3-3.2h2l-2.86,2.94Z"/><path class="cls-1" d="M66.34,20.48V18.91h1.79v1.57Zm.07,8.31V21.58h1.67v7.21Z"/><path class="cls-1" d="M71.88,28.79H70.22V21.58h1.66v1.13a4.54,4.54,0,0,1,.39-.48,2.18,2.18,0,0,1,.49-.41,2.6,2.6,0,0,1,.61-.28,2.53,2.53,0,0,1,.76-.11,2.42,2.42,0,0,1,1.89.76,2.94,2.94,0,0,1,.67,2v4.59H75V24.71a1.92,1.92,0,0,0-.4-1.31A1.42,1.42,0,0,0,73.49,23a1.54,1.54,0,0,0-1.16.47,1.81,1.81,0,0,0-.45,1.31Z"/><path class="cls-1" d="M84.75,30.11a4.21,4.21,0,0,1-2.87.89,6.13,6.13,0,0,1-3.22-.86l.62-1.24a6,6,0,0,0,1.2.56,4.56,4.56,0,0,0,1.36.2,2.4,2.4,0,0,0,1.7-.56,2.19,2.19,0,0,0,.58-1.66v-.56a3.82,3.82,0,0,1-1.05,1,2.75,2.75,0,0,1-1.49.38A3.39,3.39,0,0,1,80.36,28a3.21,3.21,0,0,1-1-.66,3.27,3.27,0,0,1-.73-1.07,3.54,3.54,0,0,1-.27-1.43,3.61,3.61,0,0,1,.27-1.43,3.23,3.23,0,0,1,.73-1.06,3.08,3.08,0,0,1,1-.67,3.27,3.27,0,0,1,1.22-.24,2.86,2.86,0,0,1,1.51.37,3.92,3.92,0,0,1,1,.87V21.58h1.65v5.74A3.53,3.53,0,0,1,84.75,30.11ZM84,24a2,2,0,0,0-.46-.63,2.18,2.18,0,0,0-.68-.4,2.46,2.46,0,0,0-.81-.14,2.28,2.28,0,0,0-.8.14,2,2,0,0,0-.65.4,1.79,1.79,0,0,0-.44.63,2.09,2.09,0,0,0-.16.81,1.92,1.92,0,0,0,.17.81,1.9,1.9,0,0,0,.43.63,2,2,0,0,0,.65.41,2.36,2.36,0,0,0,.8.14,2.46,2.46,0,0,0,.81-.14,2,2,0,0,0,1.14-1,1.92,1.92,0,0,0,.17-.81A2,2,0,0,0,84,24Z"/></svg>