<svg id="Layer_1" data-name="Layer 1" xmlns="http://www.w3.org/2000/svg" viewBox="0 0 111.79 30.76"><defs><style>.cls-1{fill:#3dae2b;}</style></defs><path class="cls-1" d="M46.2,13.87C44.46,13,42.71,12.23,41,11.38a3.89,3.89,0,0,0-3.25-.18,1.81,1.81,0,0,0-1.37,2c.1,1.17.32,2.32.5,3.49s.39,2.53.59,3.8c.09.59.19,1.19.26,1.78a6.65,6.65,0,0,1,.1,1.4,7.26,7.26,0,0,1-.34,1.79,12.7,12.7,0,0,1-.89,1.95,1.87,1.87,0,0,0-.2,1,3.74,3.74,0,0,0,.42-.28,7.35,7.35,0,0,0,2.37-4.28,19.84,19.84,0,0,0,.1-3c0-2.3,0-4.6,0-6.9,0-.28.12-.43.38-.37a6.61,6.61,0,0,1,1.54.42c1.74.87,3.44,1.81,5.17,2.7a1.34,1.34,0,0,1,.79,1.37c-.06,1.23-.13,2.45-.22,3.67a.63.63,0,0,1-.55.68,4.16,4.16,0,0,1-1.22,0c-1-.21-1.88-.5-2.83-.76l-1.06-.28-.06.09c.06.07.1.17.17.21,1.4.79,2.81,1.58,4.22,2.35a1.87,1.87,0,0,0,2.87-1.49c0-.35.06-.71.11-1.06.19-1.33.39-2.66.59-4a2.73,2.73,0,0,0-.89-2.39A7.15,7.15,0,0,0,46.2,13.87Z"/><path class="cls-1" d="M37.77,10.31c.26,0,.34-.12.24-.36s-.14-.4-.2-.6c-.27-.84-1.43-4.07-1.7-4.91-.31-1-.62-2-.94-3A1.56,1.56,0,0,0,35,1a2.71,2.71,0,0,0-2.32-1h-.56c-.21,0-.29.1-.17.3l.68,1.24c1.06,1.91,3.06,6.2,4.07,8.14A1.17,1.17,0,0,0,37.77,10.31Z"/><path class="cls-1" d="M39.65,23.93a.59.59,0,0,0,.36.8c.25.11.49.21.75.3a.71.71,0,0,0,1-.68.57.57,0,0,0-.4-.59l-.76-.29A.71.71,0,0,0,39.65,23.93Z"/><path class="cls-1" d="M42,24.9a.61.61,0,0,0,.36.8q.38.16.75.3a.7.7,0,0,0,1-.68.56.56,0,0,0-.4-.59l-.75-.29A.72.72,0,0,0,42,24.9Z"/><path class="cls-1" d="M44.28,25.9a.59.59,0,0,0,.36.8q.36.16.75.3a.71.71,0,0,0,1-.68.58.58,0,0,0-.41-.59l-.75-.29A.71.71,0,0,0,44.28,25.9Z"/><path class="cls-1" d="M38,27.64a.59.59,0,0,0,.36.8q.36.16.75.3a.7.7,0,0,0,.94-.68.57.57,0,0,0-.4-.59l-.75-.29A.71.71,0,0,0,38,27.64Z"/><path class="cls-1" d="M40.26,28.61a.62.62,0,0,0,.36.81l.75.29a.7.7,0,0,0,1-.67.59.59,0,0,0-.4-.6l-.76-.29A.72.72,0,0,0,40.26,28.61Z"/><path class="cls-1" d="M42.58,29.61a.61.61,0,0,0,.35.81l.75.29a.69.69,0,0,0,1-.67.58.58,0,0,0-.4-.6l-.75-.29A.73.73,0,0,0,42.58,29.61Z"/><path class="cls-1" d="M38.8,25.78a.61.61,0,0,0,.36.81c.24.1.49.2.75.29a.69.69,0,0,0,.94-.67.57.57,0,0,0-.4-.6l-.75-.29A.73.73,0,0,0,38.8,25.78Z"/><path class="cls-1" d="M41.11,26.76a.6.6,0,0,0,.36.8l.75.29a.7.7,0,0,0,1-.67.59.59,0,0,0-.4-.6L42,26.29A.73.73,0,0,0,41.11,26.76Z"/><path class="cls-1" d="M43.43,27.76a.59.59,0,0,0,.36.8c.24.1.49.21.75.29a.69.69,0,0,0,.94-.67.58.58,0,0,0-.4-.6l-.75-.29A.73.73,0,0,0,43.43,27.76Z"/><path class="cls-1" d="M13.47,24.07q-1.34,1-12.81,1V22.24H9A4.08,4.08,0,0,0,10.71,22a1.24,1.24,0,0,0,.81-1.1,4.24,4.24,0,0,0-.07-1,.76.76,0,0,0-.13-.4.62.62,0,0,0-.18-.28c-.38-.38-1.45-.57-3.22-.57H7.17l-1.07,0a11,11,0,0,1-3.62-.44A3.73,3.73,0,0,1,0,14.39c0-1.9.51-3.25,1.54-4.06a6.56,6.56,0,0,1,4-1h8.71v2.83H6.05a3.38,3.38,0,0,0-1.88.46,1.7,1.7,0,0,0-.7,1.47,1.68,1.68,0,0,0,.59,1.43c.41.28,2.37.41,5.88.41l1.25,0,.52.06.47.09a3.18,3.18,0,0,1,1,.4l.38.28.48.4a2.57,2.57,0,0,1,.75,1.4A12,12,0,0,1,15,21.15,3.51,3.51,0,0,1,13.47,24.07Z"/><path class="cls-1" d="M15.44,12.18V9.3H18.6v2.88Zm0,12.89V13.51H18.6V25.07Z"/><path class="cls-1" d="M33,25.07V18.14a2.52,2.52,0,0,0-.41-1.62A1.41,1.41,0,0,0,31.44,16H30.21l-.92,0v9H26.15v-9h-3.6v9h-3V13.51h11.7a5.68,5.68,0,0,1,3.51.92Q36,15.47,36,25.07Z"/><path class="cls-1" d="M53.46,25.07a3.69,3.69,0,0,1-2.63-.89,3.57,3.57,0,0,1-1-2.72,3,3,0,0,1,1.39-2.7q1.09-.71,7.28-.71a2,2,0,0,0-.79-1.77q-.63-.37-7.11-.38V13.51h6.25a5.43,5.43,0,0,1,3.54,1q1.23,1,1.23,10.55Zm5.07-4.71h-3.6a3.11,3.11,0,0,0-1.25.2,1,1,0,0,0-.59,1,1.07,1.07,0,0,0,.48,1,2.42,2.42,0,0,0,1.14.2h3.82Z"/><path class="cls-1" d="M70.09,25.07V18.14a2.64,2.64,0,0,0-.37-1.66c-.24-.27-1.6-.4-4.08-.4v9h-3V13.51h5.73a5.68,5.68,0,0,1,3.55.88q1.29,1,1.29,10.68Z"/><path class="cls-1" d="M81.81,25.07l-4.68-5.61v5.61h-3V9.3h3v9.79l4.94-5.58h3.86l-5.37,5.64,5.37,5.92Z"/><path class="cls-1" d="M85.47,12.18V9.3h3.16v2.88Zm0,12.89V13.51h3.16V25.07Z"/><path class="cls-1" d="M97,25.07V18.14a2.64,2.64,0,0,0-.37-1.66c-.24-.27-1.6-.4-4.08-.4v9h-3V13.51h5.73a5.68,5.68,0,0,1,3.55.88q1.29,1,1.29,10.68Z"/><path class="cls-1" d="M110.74,28.06q-1.09,1.15-9.32,1.16V26.87h5.44a1.61,1.61,0,0,0,1.84-1.8l-2.21,0h-1.58l-.25-.05-.24,0a4.32,4.32,0,0,1-3.2-2,5.82,5.82,0,0,1-1-3.27,12.49,12.49,0,0,1,.24-2.67,3.29,3.29,0,0,1,.9-1.65,6.3,6.3,0,0,1,2.17-1.51,8,8,0,0,1,2.74-.4h5.57V24.64A4.9,4.9,0,0,1,110.74,28.06ZM108.7,16l-.17,0H107.1a4.55,4.55,0,0,0-2.85.72,2.82,2.82,0,0,0-.88,2.31,5.23,5.23,0,0,0,.51,2.48,2.17,2.17,0,0,0,1.57,1.12l.62.06.68,0h2Z"/></svg>